<svg width="50" height="46" viewBox="0 0 50 46" fill="none" xmlns="http://www.w3.org/2000/svg">
<path d="M2.8719 45.8248C2.72188 45.8243 2.57733 45.7677 2.46594 45.666C2.35455 45.5642 2.28416 45.4244 2.26825 45.2733V45.2715L0.0160977 22.1519L0.0142517 22.094C0.0142517 21.7538 0.285618 21.479 0.621595 21.479H3.64698C10.3699 21.479 15.8199 26.929 15.8199 33.6519C15.8199 40.3756 10.3688 45.8259 3.64522 45.8249L2.8719 45.8248ZM9.07278 39.7221C9.07365 39.7218 9.07455 39.7225 9.07455 39.7234C9.07455 40.2044 9.21541 40.6746 9.47931 41.0745C9.74321 41.4744 10.1183 41.7862 10.5572 41.9702C10.996 42.1543 11.4789 42.2025 11.9448 42.1086C12.4107 42.0148 12.8386 41.7832 13.1745 41.443C13.5104 41.1029 13.7391 40.6696 13.8318 40.1978C13.9244 39.7261 13.8769 39.2371 13.6951 38.7927C13.5133 38.3483 13.2055 37.9685 12.8105 37.7013C12.4156 37.4341 11.9512 37.2914 11.4762 37.2914H11.4725C10.1462 37.2914 9.07243 38.3778 9.06902 39.7204C9.06902 39.7219 9.07043 39.7229 9.07179 39.7225L9.07278 39.7221ZM9.95511 24.7708C9.95747 24.7692 9.96065 24.771 9.96068 24.7738C9.96424 25.1091 10.2342 25.3802 10.568 25.3802H11.9784C12.1389 25.3802 12.293 25.3156 12.4065 25.2006C12.5201 25.0857 12.5839 24.9297 12.5839 24.7671C12.5839 24.6045 12.5201 24.4485 12.4065 24.3335C12.293 24.2186 12.1389 24.154 11.9784 24.154H10.5569C10.3958 24.154 10.2414 24.2188 10.1275 24.3341C10.0136 24.4494 9.94957 24.6058 9.94957 24.769C9.94957 24.7713 9.95224 24.7728 9.95422 24.7714L9.95511 24.7708ZM3.29095 24.7699C3.29349 24.7686 3.29649 24.7705 3.29652 24.7733C3.29983 25.1088 3.56991 25.3802 3.90198 25.3802H8.52628C8.68687 25.3802 8.84088 25.3156 8.95443 25.2006C9.06799 25.0857 9.13178 24.9297 9.13178 24.7671C9.13178 24.6045 9.06799 24.4485 8.95443 24.3335C8.84088 24.2186 8.68687 24.154 8.52628 24.154H3.89091C3.73032 24.154 3.57631 24.2186 3.46276 24.3335C3.34921 24.4485 3.28541 24.6045 3.28541 24.7671C3.28541 24.7697 3.28812 24.7713 3.29042 24.7702L3.29095 24.7699ZM21.3881 42.3173C21.3878 42.3165 21.3871 42.316 21.3863 42.3157C21.0614 42.2045 20.7545 42.0452 20.4756 41.8432L20.4867 41.8507L20.3021 41.7329C19.8721 41.4597 19.4474 41.178 19.0283 40.888L18.8419 40.7552C18.5982 40.5777 18.4838 40.4991 18.3582 40.5066C17.627 40.522 17.0291 39.9274 17.0291 39.196V23.4118C17.0142 22.5168 17.4669 21.6838 18.2081 21.1819C18.2559 21.1495 18.3019 21.1182 18.3459 21.088C18.6759 20.8615 18.924 20.5438 19.1137 20.1913C19.3358 19.7789 19.5615 19.4064 19.8037 19.0451L19.7723 19.0956C19.9292 18.847 20.0861 18.6003 20.2301 18.3554L23.4126 12.9456C23.5603 12.6914 23.7209 12.4372 23.8815 12.1829C24.1492 11.7792 24.4335 11.2969 24.6938 10.7997L24.7381 10.7081C24.8839 10.4062 24.9348 10.0662 24.8839 9.73415C24.8841 9.73525 24.8858 9.73509 24.8858 9.73397L24.8747 3.91127C24.991 3.06261 25.4636 2.34479 26.13 1.90738C26.1374 1.9024 26.1444 1.89688 26.151 1.8909C26.7436 1.3544 27.4935 1.02918 28.2862 0.965248H28.2991L28.4154 0.963379C29.0449 0.963379 29.6393 1.11479 30.1673 1.3821L30.1451 1.37089C30.4977 1.54286 30.7986 1.72605 31.081 1.93168L31.0626 1.91859L31.2583 2.04944C31.7032 2.28685 32.0354 2.68688 32.1831 3.17103L32.1868 3.18411C32.532 4.48515 32.8477 5.66842 33.1412 6.85542L33.263 7.33957C33.4495 7.97514 33.6101 8.74342 33.7135 9.5304C33.7196 9.58257 33.7199 9.63541 33.7142 9.68763C33.3962 12.5991 32.7919 15.2583 31.921 17.7927C31.967 17.6395 32.1079 17.5346 32.2679 17.5344L46.2 17.5142H46.2517C46.6819 17.5142 47.1072 17.607 47.4993 17.7862C47.8915 17.9655 48.2414 18.2271 48.526 18.5539C48.8106 18.8806 49.0233 19.2649 49.15 19.6812C49.2767 20.0975 49.3144 20.5364 49.2607 20.9687C49.2609 20.967 49.2634 20.9671 49.2635 20.9688C49.3003 21.6168 49.1683 22.2633 48.8806 22.8436C48.5908 23.4284 48.1531 23.925 47.6122 24.2829C47.6041 24.2881 47.6019 24.2988 47.6072 24.3068C48.1185 25.0709 48.3574 25.9889 48.2842 26.9093V26.8962C48.3488 27.6302 48.18 28.3659 47.8024 28.9958C47.4248 29.6257 46.8581 30.1168 46.1852 30.3974C46.1737 30.4013 46.1685 30.4147 46.1744 30.4254C46.5795 31.1659 46.7672 32.0085 46.715 32.8537V32.8425C46.7552 33.4815 46.6245 34.1196 46.3367 34.6897C46.0488 35.2598 45.6145 35.7408 45.0795 36.082C45.071 36.0874 45.0677 36.0981 45.0717 36.1073C45.4435 36.9581 45.5839 37.8942 45.4782 38.8186L45.4801 38.7943V39.1458C45.4536 39.6062 45.3357 40.0565 45.1334 40.4696C44.931 40.8828 44.6484 41.2504 44.3025 41.5504C43.9566 41.8504 43.5545 42.0767 43.1202 42.2156C42.6859 42.3546 42.2284 42.4034 41.7751 42.3591C41.7762 42.3593 41.7761 42.361 41.7749 42.361H33.6119L33.5843 42.3628L33.5547 42.361H33.5566H22.6465C22.5524 42.361 22.4546 42.361 22.3512 42.3759C22.2257 42.3834 22.0927 42.3946 21.9561 42.3946H21.9284C21.742 42.3948 21.5563 42.3696 21.3765 42.3198L21.3845 42.3219C21.3871 42.3225 21.3894 42.3198 21.3881 42.3173ZM10.2837 39.7234C10.2838 39.5662 10.3145 39.4105 10.3741 39.2653C10.4336 39.1201 10.5208 38.9881 10.6307 38.877C10.7405 38.766 10.871 38.6779 11.0145 38.6178C11.158 38.5578 11.3117 38.5269 11.467 38.527C11.6223 38.5272 11.776 38.5582 11.9194 38.6185C12.0628 38.6788 12.1931 38.7671 12.3028 38.8784C12.4125 38.9896 12.4995 39.1217 12.5588 39.267C12.6181 39.4123 12.6486 39.568 12.6485 39.7253C12.6482 40.0428 12.5234 40.3472 12.3015 40.5716C12.0796 40.7959 11.7787 40.9219 11.4652 40.9216C11.1516 40.9214 10.8509 40.795 10.6294 40.5703C10.4078 40.3456 10.2835 40.0409 10.2837 39.7234Z" fill="#FFC807"/>
</svg>
