<svg width="185" height="58" viewBox="0 0 185 58" fill="none" xmlns="http://www.w3.org/2000/svg">
<circle cx="29.576" cy="28.9861" r="25" fill="#FAB025"/>
<path d="M30.9779 43.5461C28.0446 43.5461 25.4046 42.9328 23.0579 41.7061C20.7379 40.4528 18.9112 38.7194 17.5779 36.5061C16.2446 34.2928 15.5779 31.7861 15.5779 28.9861C15.5779 26.1861 16.2446 23.6794 17.5779 21.4661C18.9112 19.2527 20.7379 17.5327 23.0579 16.3061C25.4046 15.0527 28.0446 14.4261 30.9779 14.4261C33.5379 14.4261 35.8446 14.8794 37.8979 15.7861C39.9512 16.6927 41.6579 17.9994 43.0179 19.7061L37.9779 24.2661C36.1646 22.0794 33.9646 20.9861 31.3779 20.9861C29.8579 20.9861 28.4979 21.3194 27.2979 21.9861C26.1246 22.6528 25.2046 23.5994 24.5379 24.8261C23.8979 26.0261 23.5779 27.4128 23.5779 28.9861C23.5779 30.5594 23.8979 31.9594 24.5379 33.1861C25.2046 34.3861 26.1246 35.3194 27.2979 35.9861C28.4979 36.6528 29.8579 36.9861 31.3779 36.9861C33.9646 36.9861 36.1646 35.8928 37.9779 33.7061L43.0179 38.2661C41.6579 39.9728 39.9512 41.2794 37.8979 42.1861C35.8446 43.0928 33.5379 43.5461 30.9779 43.5461Z" fill="white"/>
<path d="M60.7091 25.3741H62.9591V29.2801H67.8011V25.3741H70.0511V34.9861H67.8011V31.1881H62.9591V34.9861H60.7091V25.3741ZM76.6485 25.2661C78.0645 25.2661 79.1445 25.6081 79.8885 26.2921C80.6445 26.9641 81.0225 27.9841 81.0225 29.3521V34.9861H78.8985V33.8161C78.6225 34.2361 78.2265 34.5601 77.7105 34.7881C77.2065 35.0041 76.5945 35.1121 75.8745 35.1121C75.1545 35.1121 74.5245 34.9921 73.9845 34.7521C73.4445 34.5001 73.0245 34.1581 72.7245 33.7261C72.4365 33.2821 72.2925 32.7841 72.2925 32.2321C72.2925 31.3681 72.6105 30.6781 73.2465 30.1621C73.8945 29.6341 74.9085 29.3701 76.2885 29.3701H78.7725V29.2261C78.7725 28.5541 78.5685 28.0381 78.1605 27.6781C77.7645 27.3181 77.1705 27.1381 76.3785 27.1381C75.8385 27.1381 75.3045 27.2221 74.7765 27.3901C74.2605 27.5581 73.8225 27.7921 73.4625 28.0921L72.5805 26.4541C73.0845 26.0701 73.6905 25.7761 74.3985 25.5721C75.1065 25.3681 75.8565 25.2661 76.6485 25.2661ZM76.3425 33.4741C76.9065 33.4741 77.4045 33.3481 77.8365 33.0961C78.2805 32.8321 78.5925 32.4601 78.7725 31.9801V30.8641H76.4505C75.1545 30.8641 74.5065 31.2901 74.5065 32.1421C74.5065 32.5501 74.6685 32.8741 74.9925 33.1141C75.3165 33.3541 75.7665 33.4741 76.3425 33.4741ZM93.2567 34.9861V28.6141L90.0167 33.9781H89.0447L85.8587 28.5961V34.9861H83.8067V25.3741H86.1647L89.5847 31.3861L93.1667 25.3741H95.2727L95.2907 34.9861H93.2567ZM98.3087 25.3741H100.559V31.7101L105.869 25.3741H107.921V34.9861H105.671V28.6501L100.379 34.9861H98.3087V25.3741ZM125.138 25.3741V34.9861H122.906V27.2821H118.172V34.9861H115.922V25.3741H125.138ZM133.502 25.2661C134.438 25.2661 135.272 25.4701 136.004 25.8781C136.748 26.2861 137.33 26.8621 137.75 27.6061C138.17 28.3501 138.38 29.2081 138.38 30.1801C138.38 31.1521 138.17 32.0161 137.75 32.7721C137.33 33.5161 136.748 34.0921 136.004 34.5001C135.272 34.9081 134.438 35.1121 133.502 35.1121C132.206 35.1121 131.18 34.6801 130.424 33.8161V38.4781H128.174V25.3741H130.316V26.6341C130.688 26.1781 131.144 25.8361 131.684 25.6081C132.236 25.3801 132.842 25.2661 133.502 25.2661ZM133.25 33.1861C134.078 33.1861 134.756 32.9101 135.284 32.3581C135.824 31.8061 136.094 31.0801 136.094 30.1801C136.094 29.2801 135.824 28.5541 135.284 28.0021C134.756 27.4501 134.078 27.1741 133.25 27.1741C132.71 27.1741 132.224 27.3001 131.792 27.5521C131.36 27.7921 131.018 28.1401 130.766 28.5961C130.514 29.0521 130.388 29.5801 130.388 30.1801C130.388 30.7801 130.514 31.3081 130.766 31.7641C131.018 32.2201 131.36 32.5741 131.792 32.8261C132.224 33.0661 132.71 33.1861 133.25 33.1861ZM144.903 35.1121C143.931 35.1121 143.055 34.9021 142.275 34.4821C141.495 34.0621 140.883 33.4801 140.439 32.7361C140.007 31.9801 139.791 31.1281 139.791 30.1801C139.791 29.2321 140.007 28.3861 140.439 27.6421C140.883 26.8981 141.495 26.3161 142.275 25.8961C143.055 25.4761 143.931 25.2661 144.903 25.2661C145.887 25.2661 146.769 25.4761 147.549 25.8961C148.329 26.3161 148.935 26.8981 149.367 27.6421C149.811 28.3861 150.033 29.2321 150.033 30.1801C150.033 31.1281 149.811 31.9801 149.367 32.7361C148.935 33.4801 148.329 34.0621 147.549 34.4821C146.769 34.9021 145.887 35.1121 144.903 35.1121ZM144.903 33.1861C145.731 33.1861 146.415 32.9101 146.955 32.3581C147.495 31.8061 147.765 31.0801 147.765 30.1801C147.765 29.2801 147.495 28.5541 146.955 28.0021C146.415 27.4501 145.731 27.1741 144.903 27.1741C144.075 27.1741 143.391 27.4501 142.851 28.0021C142.323 28.5541 142.059 29.2801 142.059 30.1801C142.059 31.0801 142.323 31.8061 142.851 32.3581C143.391 32.9101 144.075 33.1861 144.903 33.1861ZM156.63 35.1121C155.634 35.1121 154.74 34.9021 153.948 34.4821C153.156 34.0621 152.538 33.4801 152.094 32.7361C151.65 31.9801 151.428 31.1281 151.428 30.1801C151.428 29.2321 151.65 28.3861 152.094 27.6421C152.538 26.8981 153.15 26.3161 153.93 25.8961C154.722 25.4761 155.622 25.2661 156.63 25.2661C157.578 25.2661 158.406 25.4581 159.114 25.8421C159.834 26.2261 160.374 26.7781 160.734 27.4981L159.006 28.5061C158.73 28.0621 158.382 27.7321 157.962 27.5161C157.554 27.2881 157.104 27.1741 156.612 27.1741C155.772 27.1741 155.076 27.4501 154.524 28.0021C153.972 28.5421 153.696 29.2681 153.696 30.1801C153.696 31.0921 153.966 31.8241 154.506 32.3761C155.058 32.9161 155.76 33.1861 156.612 33.1861C157.104 33.1861 157.554 33.0781 157.962 32.8621C158.382 32.6341 158.73 32.2981 159.006 31.8541L160.734 32.8621C160.362 33.5821 159.816 34.1401 159.096 34.5361C158.388 34.9201 157.566 35.1121 156.63 35.1121ZM170.241 27.2821H166.875V34.9861H164.625V27.2821H161.241V25.3741H170.241V27.2821ZM175.735 35.1121C174.763 35.1121 173.887 34.9021 173.107 34.4821C172.327 34.0621 171.715 33.4801 171.271 32.7361C170.839 31.9801 170.623 31.1281 170.623 30.1801C170.623 29.2321 170.839 28.3861 171.271 27.6421C171.715 26.8981 172.327 26.3161 173.107 25.8961C173.887 25.4761 174.763 25.2661 175.735 25.2661C176.719 25.2661 177.601 25.4761 178.381 25.8961C179.161 26.3161 179.767 26.8981 180.199 27.6421C180.643 28.3861 180.865 29.2321 180.865 30.1801C180.865 31.1281 180.643 31.9801 180.199 32.7361C179.767 33.4801 179.161 34.0621 178.381 34.4821C177.601 34.9021 176.719 35.1121 175.735 35.1121ZM175.735 33.1861C176.563 33.1861 177.247 32.9101 177.787 32.3581C178.327 31.8061 178.597 31.0801 178.597 30.1801C178.597 29.2801 178.327 28.5541 177.787 28.0021C177.247 27.4501 176.563 27.1741 175.735 27.1741C174.907 27.1741 174.223 27.4501 173.683 28.0021C173.155 28.5541 172.891 29.2801 172.891 30.1801C172.891 31.0801 173.155 31.8061 173.683 32.3581C174.223 32.9101 174.907 33.1861 175.735 33.1861Z" fill="black"/>
<rect x="0.5" y="1.11377" width="183.638" height="55.512" stroke="#FBB32E"/>
</svg>
